<svg width="77" height="78" viewBox="0 0 77 78" fill="none" xmlns="http://www.w3.org/2000/svg">
<path d="M21.25 64.5H27.625V56H36.125V49.625H27.625V41.125H21.25V49.625H12.75V56H21.25V64.5ZM42.5 61.3125H63.75V54.9375H42.5V61.3125ZM42.5 50.6875H63.75V44.3125H42.5V50.6875ZM13.8125 27.1H35.0625V20.725H13.8125V27.1ZM8.5 77.25C6.1625 77.25 4.16146 76.4177 2.49688 74.7531C0.832292 73.0885 0 71.0875 0 68.75V9.25C0 6.9125 0.832292 4.91146 2.49688 3.24688C4.16146 1.58229 6.1625 0.75 8.5 0.75H68C70.3375 0.75 72.3385 1.58229 74.0031 3.24688C75.6677 4.91146 76.5 6.9125 76.5 9.25V68.75C76.5 71.0875 75.6677 73.0885 74.0031 74.7531C72.3385 76.4177 70.3375 77.25 68 77.25H8.5ZM47.175 34.5375L53.125 28.5875L59.075 34.5375L63.5375 30.075L57.5875 23.9125L63.5375 17.9625L59.075 13.5L53.125 19.45L47.175 13.5L42.7125 17.9625L48.6625 23.9125L42.7125 30.075L47.175 34.5375Z" fill="#CE350C"/>
</svg>
