<svg width="207" height="62" viewBox="0 0 207 62" fill="none" xmlns="http://www.w3.org/2000/svg">
<rect x="4" y="4" width="25.7143" height="25.7143" fill="white"/>
<rect x="4" y="32.2857" width="25.7143" height="25.7143" fill="#182C6D"/>
<rect x="32.2857" y="4" width="25.7143" height="25.7143" fill="#EECA4B"/>
<rect x="32.2857" y="32.2857" width="25.7143" height="25.7143" fill="#CE350C"/>
<path d="M75.856 43V19.96H94.416C95.2267 19.96 95.9733 20.1627 96.656 20.568C97.3387 20.9733 97.8827 21.5173 98.288 22.2C98.6933 22.8613 98.896 23.5973 98.896 24.408V38.552C98.896 39.3627 98.6933 40.1093 98.288 40.792C97.8827 41.4533 97.3387 41.9867 96.656 42.392C95.9733 42.7973 95.2267 43 94.416 43H75.856ZM80.432 38.744H94.224C94.3307 38.744 94.4267 38.712 94.512 38.648C94.5973 38.5627 94.64 38.4667 94.64 38.36V24.6C94.64 24.4933 94.5973 24.408 94.512 24.344C94.4267 24.2587 94.3307 24.216 94.224 24.216H80.432C80.3253 24.216 80.2293 24.2587 80.144 24.344C80.08 24.408 80.048 24.4933 80.048 24.6V38.36C80.048 38.4667 80.08 38.5627 80.144 38.648C80.2293 38.712 80.3253 38.744 80.432 38.744ZM106.736 43C105.925 43 105.189 42.7973 104.528 42.392C103.866 41.9867 103.333 41.4533 102.928 40.792C102.522 40.1307 102.32 39.3947 102.32 38.584V28.856C102.32 28.0453 102.522 27.3093 102.928 26.648C103.333 25.9867 103.866 25.4533 104.528 25.048C105.189 24.6427 105.925 24.44 106.736 24.44H116.752C117.562 24.44 118.298 24.6427 118.96 25.048C119.642 25.4533 120.176 25.9867 120.56 26.648C120.965 27.3093 121.168 28.0453 121.168 28.856V35.832H106.512V38.424C106.512 38.5307 106.544 38.6267 106.608 38.712C106.693 38.776 106.789 38.808 106.896 38.808H121.168V43H106.736ZM106.512 32.056H116.976V29.016C116.976 28.9093 116.933 28.824 116.847 28.76C116.784 28.6747 116.698 28.632 116.592 28.632H106.896C106.789 28.632 106.693 28.6747 106.608 28.76C106.544 28.824 106.512 28.9093 106.512 29.016V32.056ZM138.769 43C137.958 43 137.212 42.7973 136.529 42.392C135.868 41.9867 135.334 41.4533 134.929 40.792C134.524 40.1093 134.321 39.3627 134.321 38.552V36.792H138.545V38.36C138.545 38.4667 138.577 38.5627 138.641 38.648C138.726 38.712 138.822 38.744 138.929 38.744H152.721C152.828 38.744 152.913 38.712 152.977 38.648C153.062 38.5627 153.105 38.4667 153.105 38.36V33.976C153.105 33.8693 153.062 33.784 152.977 33.72C152.913 33.656 152.828 33.624 152.721 33.624H138.769C137.958 33.624 137.212 33.4213 136.529 33.016C135.868 32.6107 135.334 32.0773 134.929 31.416C134.524 30.7333 134.321 29.976 134.321 29.144V24.408C134.321 23.5973 134.524 22.8613 134.929 22.2C135.334 21.5173 135.868 20.9733 136.529 20.568C137.212 20.1627 137.958 19.96 138.769 19.96H152.913C153.724 19.96 154.46 20.1627 155.121 20.568C155.804 20.9733 156.348 21.5173 156.753 22.2C157.158 22.8613 157.361 23.5973 157.361 24.408V26.168H153.105V24.6C153.105 24.4933 153.062 24.408 152.977 24.344C152.913 24.2587 152.828 24.216 152.721 24.216H138.929C138.822 24.216 138.726 24.2587 138.641 24.344C138.577 24.408 138.545 24.4933 138.545 24.6V28.984C138.545 29.0907 138.577 29.176 138.641 29.24C138.726 29.304 138.822 29.336 138.929 29.336H152.913C153.724 29.336 154.46 29.5387 155.121 29.944C155.804 30.3493 156.348 30.8933 156.753 31.576C157.158 32.2373 157.361 32.984 157.361 33.816V38.552C157.361 39.3627 157.158 40.1093 156.753 40.792C156.348 41.4533 155.804 41.9867 155.121 42.392C154.46 42.7973 153.724 43 152.913 43H138.769ZM165.175 43C164.364 43 163.628 42.7973 162.967 42.392C162.305 41.9867 161.772 41.4533 161.367 40.792C160.961 40.1307 160.759 39.3947 160.759 38.584V18.744H164.951V24.44H172.183V28.632H164.951V38.424C164.951 38.5307 164.983 38.6267 165.047 38.712C165.132 38.776 165.228 38.808 165.335 38.808H172.183V43H165.175ZM174.789 43V24.44H178.981V43H174.789ZM174.789 22.584V18.36H178.981V22.584H174.789ZM174.235 50.008V45.784H182.075C182.181 45.784 182.267 45.7413 182.331 45.656C182.416 45.592 182.459 45.5067 182.459 45.4V24.44H186.651V45.592C186.651 46.4027 186.448 47.1387 186.043 47.8C185.659 48.4827 185.125 49.016 184.443 49.4C183.781 49.8053 183.045 50.008 182.235 50.008H174.235ZM182.459 22.584V18.36H186.651V22.584H182.459ZM193.955 43C193.144 43 192.408 42.7973 191.747 42.392C191.086 41.9867 190.552 41.4533 190.147 40.792C189.742 40.1307 189.539 39.3947 189.539 38.584V18.328H193.763V38.424C193.763 38.5307 193.795 38.6267 193.859 38.712C193.944 38.776 194.04 38.808 194.147 38.808H197.699V43H193.955Z" fill="black"/>
</svg>
